<mxfile host="app.diagrams.net" modified="2023-12-12T21:10:35.744Z" agent="Mozilla/5.0 (Macintosh; Intel Mac OS X 10_15_7) AppleWebKit/537.36 (KHTML, like Gecko) Chrome/120.0.0.0 Safari/537.36" etag="rsMJ8REtMIumcljAf_OT" version="22.1.8" type="github">
  <diagram name="Page-1" id="bIyjlAQ9YMRKnGvKF9Pl">
    <mxGraphModel dx="668" dy="605" grid="1" gridSize="10" guides="1" tooltips="1" connect="1" arrows="1" fold="1" page="1" pageScale="1" pageWidth="850" pageHeight="1100" math="0" shadow="0">
      <root>
        <mxCell id="0" />
        <mxCell id="1" parent="0" />
      </root>
    </mxGraphModel>
  </diagram>
</mxfile>
